<svg width="14" height="17" viewBox="0 0 14 17" fill="none" xmlns="http://www.w3.org/2000/svg">
<path d="M5.94993 0.963379H7.64991V8.96338H5.94993V0.963379ZM9.34989 1.55713L9.38973 1.57275C10.0095 1.87484 10.5762 2.27327 11.0897 2.76807C11.6032 3.26286 12.046 3.83057 12.4178 4.47119C12.7897 5.11182 13.0797 5.81234 13.2877 6.57275C13.4958 7.33317 13.5998 8.13005 13.5998 8.96338C13.5998 10.0675 13.4228 11.1066 13.0686 12.0806C12.7144 13.0545 12.2297 13.9035 11.6143 14.6274C10.999 15.3514 10.2774 15.9217 9.4495 16.3384C8.62164 16.755 7.73845 16.9634 6.79992 16.9634C5.86139 16.9634 4.9782 16.755 4.15034 16.3384C3.32249 15.9217 2.60088 15.3514 1.98552 14.6274C1.37017 13.9035 0.885406 13.0545 0.531244 12.0806C0.177081 11.1066 0 10.0675 0 8.96338C0 8.13005 0.104035 7.33317 0.312106 6.57275C0.520176 5.81234 0.810147 5.11182 1.18202 4.47119C1.55389 3.83057 2.00102 3.26025 2.52341 2.76025C3.0458 2.26025 3.62131 1.85921 4.24995 1.55713L4.22339 3.7915C3.85152 4.05192 3.50842 4.36442 3.1941 4.729C2.87978 5.09359 2.61195 5.49723 2.3906 5.93994C2.16925 6.38265 1.9988 6.85921 1.87927 7.36963C1.75974 7.88005 1.69998 8.4113 1.69998 8.96338C1.69998 9.79671 1.83279 10.578 2.09841 11.3071C2.36403 12.0363 2.72926 12.6717 3.1941 13.2134C3.65894 13.755 4.19904 14.1821 4.8144 14.4946C5.42975 14.8071 6.09159 14.9634 6.79992 14.9634C7.50824 14.9634 8.17009 14.8071 8.78544 14.4946C9.4008 14.1821 9.9409 13.755 10.4057 13.2134C10.8706 12.6717 11.2358 12.0363 11.5014 11.3071C11.767 10.578 11.8999 9.79671 11.8999 8.96338C11.8999 8.4113 11.8401 7.88005 11.7206 7.36963C11.601 6.85921 11.4284 6.38265 11.2026 5.93994C10.9768 5.49723 10.7068 5.09098 10.3925 4.72119C10.0781 4.3514 9.73061 4.0363 9.34989 3.77588V1.55713Z" fill="white"/>
</svg>
