<svg width="17" height="17" viewBox="0 0 17 17" fill="none" xmlns="http://www.w3.org/2000/svg">
<path opacity="0.5" fill-rule="evenodd" clip-rule="evenodd" d="M8.41064 0.436035C3.99237 0.436035 0.410645 4.01776 0.410645 8.43604C0.410645 12.8543 3.99237 16.436 8.41064 16.436C12.8289 16.436 16.4106 12.8543 16.4106 8.43604C16.4106 4.01776 12.8289 0.436035 8.41064 0.436035ZM9.27939 13.7554V11.5414C9.27939 11.3134 9.16539 11.1994 8.93739 11.1994H7.33539C7.09539 11.1994 6.97539 11.3194 6.97539 11.5594V13.7374C6.97539 14.0014 7.09539 14.1334 7.33539 14.1334H8.93739C9.16539 14.1334 9.27939 14.0074 9.27939 13.7554ZM9.26139 9.65136V9.18336C9.26139 8.89536 9.41739 8.60736 9.72939 8.31936L10.9534 7.32936C11.4934 6.86136 11.7634 6.33336 11.7634 5.74536V5.49336C11.7634 4.55736 11.5054 3.83736 10.9894 3.33336C10.4734 2.82936 9.74139 2.57736 8.79339 2.57736H7.73139C6.78339 2.57736 6.05139 2.82936 5.53539 3.33336C5.01939 3.83736 4.76139 4.55736 4.76139 5.49336V5.90736C4.76139 6.17136 4.88739 6.30336 5.13939 6.30336H6.66939C6.92139 6.30336 7.04739 6.17136 7.04739 5.90736V5.52936C7.04739 5.14536 7.12539 4.87536 7.28139 4.71936C7.44939 4.56336 7.71939 4.48536 8.09139 4.48536H8.41539C8.81139 4.48536 9.09339 4.56936 9.26139 4.73736C9.44139 4.89336 9.53139 5.15736 9.53139 5.52936V5.63736C9.53139 5.99736 9.33939 6.32736 8.95539 6.62736L7.94739 7.45536C7.63539 7.70736 7.41339 7.95936 7.28139 8.21136C7.14939 8.45136 7.08339 8.76936 7.08339 9.16536V9.65136C7.08339 9.90336 7.20939 10.0294 7.46139 10.0294H8.88339C9.13539 10.0294 9.26139 9.90336 9.26139 9.65136Z" fill="white"/>
</svg>
